<?xml version="1.0" encoding="iso-8859-1"?>
<!-- Generator: Adobe Illustrator 18.0.0, SVG Export Plug-In . SVG Version: 6.00 Build 0)  -->
<!DOCTYPE svg PUBLIC "-//W3C//DTD SVG 1.1//EN" "http://www.w3.org/Graphics/SVG/1.1/DTD/svg11.dtd">
<svg version="1.1" id="Capa_1" xmlns="http://www.w3.org/2000/svg" xmlns:xlink="http://www.w3.org/1999/xlink" x="0px" y="0px"
	 viewBox="0 0 297.5 297.5" style="enable-background:new 0 0 297.5 297.5;" xml:space="preserve">
<g>
	<g id="XMLID_33_">
		<g>
			<path style="fill:#D5C295;" d="M241.21,121.42v143.51c0,7-5.69,12.68-12.68,12.68H70.29c-6.99,0-12.68-5.68-12.68-12.68V121.42
				c5.38,2.57,11.4,4.01,17.75,4.01h15.63v10.31c0,5.42,4.4,9.82,9.82,9.82c5.42,0,9.82-4.4,9.82-9.82v-10.31h77.56v10.31
				c0,5.42,4.4,9.82,9.82,9.82s9.82-4.4,9.82-9.82v-10.31h15.62C229.81,125.43,235.83,123.99,241.21,121.42z M229.92,252.09V181.4
				c0-5.43-4.4-9.82-9.82-9.82H78.72c-5.43,0-9.82,4.39-9.82,9.82v70.69c0,5.42,4.39,9.81,9.82,9.81H220.1
				C225.52,261.9,229.92,257.51,229.92,252.09z"/>
			<path style="fill:#E67E22;" d="M245.14,41.57v42.54c0,11.96-9.73,21.69-21.69,21.69h-15.62V87.14c0-5.42-4.4-9.82-9.82-9.82
				s-9.82,4.4-9.82,9.82v18.66h-77.56V87.14c0-5.42-4.4-9.82-9.82-9.82c-5.42,0-9.82,4.4-9.82,9.82v18.66H75.36
				c-11.95,0-21.68-9.73-21.68-21.69V41.57c0-11.96,9.73-21.68,21.68-21.68h148.09C235.41,19.89,245.14,29.61,245.14,41.57z"/>
			<path style="fill:#FFA800;" d="M37.97,162.48v93.04H21.61v-71.83C21.61,173.52,28.57,164.94,37.97,162.48z"/>
			<path style="fill:#FFA800;" d="M275.9,183.69v71.83h-15.06v-92.65C269.58,165.76,275.9,174,275.9,183.69z"/>
			<path style="fill:#FFA800;" d="M275.08,35.02v55.64h-10.83c0.34-2.13,0.52-4.32,0.52-6.55V41.57c0-2.23-0.18-4.41-0.52-6.55
				H275.08z"/>
			<path style="fill:#FFA800;" d="M23.74,35.02h10.83c-0.34,2.14-0.53,4.32-0.53,6.55v42.54c0,2.23,0.19,4.42,0.53,6.55H23.74V35.02
				z"/>
			<rect x="88.54" y="191.21" style="fill:#FFA800;" width="121.74" height="51.06"/>
			<path d="M295.53,183.69v81.65c0,5.42-4.39,9.82-9.81,9.82h-26.54c-4.29,12.82-16.41,22.09-30.65,22.09H70.29
				c-14.25,0-26.36-9.27-30.65-22.09H11.79c-5.42,0-9.82-4.4-9.82-9.82v-81.65c0-21.04,15.71-38.46,36-41.18V110.3H13.92
				c-5.43,0-9.82-4.4-9.82-9.82V25.2c0-5.42,4.39-9.81,9.82-9.81h29.5C51.01,6.15,62.51,0.25,75.36,0.25h148.09
				c12.86,0,24.36,5.9,31.94,15.14h29.51c5.42,0,9.82,4.39,9.82,9.81v75.28c0,5.42-4.4,9.82-9.82,9.82h-24.06v32.4
				C280.5,145.99,295.53,163.11,295.53,183.69z M275.9,255.52v-71.83c0-9.69-6.32-17.93-15.06-20.82v92.65H275.9z M275.08,90.66
				V35.02h-10.83c0.34,2.14,0.52,4.32,0.52,6.55v42.54c0,2.23-0.18,4.42-0.52,6.55H275.08z M245.14,84.11V41.57
				c0-11.96-9.73-21.68-21.69-21.68H75.36c-11.95,0-21.68,9.72-21.68,21.68v42.54c0,11.96,9.73,21.69,21.68,21.69h15.63V87.14
				c0-5.42,4.4-9.82,9.82-9.82c5.42,0,9.82,4.4,9.82,9.82v18.66h77.56V87.14c0-5.42,4.4-9.82,9.82-9.82s9.82,4.4,9.82,9.82v18.66
				h15.62C235.41,105.8,245.14,96.07,245.14,84.11z M241.21,264.93V121.42c-5.38,2.57-11.4,4.01-17.76,4.01h-15.62v10.31
				c0,5.42-4.4,9.82-9.82,9.82s-9.82-4.4-9.82-9.82v-10.31h-77.56v10.31c0,5.42-4.4,9.82-9.82,9.82c-5.42,0-9.82-4.4-9.82-9.82
				v-10.31H75.36c-6.35,0-12.37-1.44-17.75-4.01v143.51c0,7,5.69,12.68,12.68,12.68h158.24
				C235.52,277.61,241.21,271.93,241.21,264.93z M37.97,255.52v-93.04c-9.4,2.46-16.36,11.04-16.36,21.21v71.83H37.97z M34.57,35.02
				H23.74v55.64h10.83c-0.34-2.13-0.53-4.32-0.53-6.55V41.57C34.04,39.34,34.23,37.16,34.57,35.02z"/>
			<path d="M229.92,181.4v70.69c0,5.42-4.4,9.81-9.82,9.81H78.72c-5.43,0-9.82-4.39-9.82-9.81V181.4c0-5.43,4.39-9.82,9.82-9.82
				H220.1C225.52,171.58,229.92,175.97,229.92,181.4z M210.28,242.27v-51.06H88.54v51.06H210.28z"/>
		</g>
		<g>
		</g>
	</g>
</g>
<g>
</g>
<g>
</g>
<g>
</g>
<g>
</g>
<g>
</g>
<g>
</g>
<g>
</g>
<g>
</g>
<g>
</g>
<g>
</g>
<g>
</g>
<g>
</g>
<g>
</g>
<g>
</g>
<g>
</g>
</svg>
