<?xml version="1.0" encoding="iso-8859-1"?>
<!-- Generator: Adobe Illustrator 18.0.0, SVG Export Plug-In . SVG Version: 6.00 Build 0)  -->
<!DOCTYPE svg PUBLIC "-//W3C//DTD SVG 1.1//EN" "http://www.w3.org/Graphics/SVG/1.1/DTD/svg11.dtd">
<svg version="1.1" id="Capa_1" xmlns="http://www.w3.org/2000/svg" xmlns:xlink="http://www.w3.org/1999/xlink" x="0px" y="0px"
	 viewBox="0 0 297.5 297.5" style="enable-background:new 0 0 297.5 297.5;" xml:space="preserve">
<g id="XMLID_22_">
	<g>
		<polygon style="fill:#D5C295;" points="85.09,125.98 47.03,220.53 35.7,220.53 73.76,125.98 		"/>
		<polygon style="fill:#D5C295;" points="223.74,125.98 261.81,220.53 250.48,220.53 212.42,125.98 		"/>
		<polygon style="fill:#8E725E;" points="38.89,159.58 34.46,170.59 20.05,170.59 20.05,159.58 		"/>
		<polygon style="fill:#8E725E;" points="277.45,159.58 277.45,170.59 263.04,170.59 258.61,159.58 		"/>
		<polygon style="fill:#8E725E;" points="204.6,159.58 209.03,170.59 88.48,170.59 92.91,159.58 		"/>
		<path d="M297.25,149.68v30.81c0,5.46-4.43,9.9-9.9,9.9h-16.33l14.63,36.34c1.23,3.05,0.86,6.51-0.98,9.24
			c-1.84,2.72-4.92,4.36-8.21,4.36h-32.67c-4.04,0-7.67-2.46-9.18-6.21L217,190.39H80.5l-17.6,43.73c-1.51,3.75-5.15,6.21-9.19,6.21
			H21.04c-3.29,0-6.36-1.64-8.2-4.36c-1.84-2.73-2.21-6.19-0.98-9.24l14.63-36.34H10.15c-5.46,0-9.9-4.44-9.9-9.9v-30.81
			c0-5.46,4.44-9.9,9.9-9.9h36.71l5.56-13.8h-1.68c-5.46,0-9.9-4.43-9.9-9.9v-49c0-5.47,4.44-9.91,9.9-9.91h196.02
			c5.47,0,9.9,4.44,9.9,9.91v49c0,5.47-4.43,9.9-9.9,9.9h-1.67l5.55,13.8h36.71C292.82,139.78,297.25,144.22,297.25,149.68z
			 M277.45,170.59v-11.01h-18.84l4.43,11.01H277.45z M261.81,220.53l-38.07-94.55h-11.32l38.06,94.55H261.81z M236.86,106.18V76.97
			H60.64v29.21H236.86z M209.03,170.59l-4.43-11.01H92.91l-4.43,11.01H209.03z M196.63,139.78l-5.56-13.8h-84.64l-5.55,13.8H196.63z
			 M47.03,220.53l38.06-94.55H73.76L35.7,220.53H47.03z M34.46,170.59l4.43-11.01H20.05v11.01H34.46z"/>
		<rect x="60.64" y="76.97" style="fill:#8E725E;" width="176.22" height="29.21"/>
	</g>
	<g>
	</g>
</g>
<g>
</g>
<g>
</g>
<g>
</g>
<g>
</g>
<g>
</g>
<g>
</g>
<g>
</g>
<g>
</g>
<g>
</g>
<g>
</g>
<g>
</g>
<g>
</g>
<g>
</g>
<g>
</g>
<g>
</g>
</svg>
