<?xml version="1.0" encoding="iso-8859-1"?>
<!-- Generator: Adobe Illustrator 18.0.0, SVG Export Plug-In . SVG Version: 6.00 Build 0)  -->
<!DOCTYPE svg PUBLIC "-//W3C//DTD SVG 1.1//EN" "http://www.w3.org/Graphics/SVG/1.1/DTD/svg11.dtd">
<svg version="1.1" id="Capa_1" xmlns="http://www.w3.org/2000/svg" xmlns:xlink="http://www.w3.org/1999/xlink" x="0px" y="0px"
	 viewBox="0 0 297.5 297.5" style="enable-background:new 0 0 297.5 297.5;" xml:space="preserve">
<g>
	<g id="XMLID_25_">
		<g>
			<rect x="174.935" y="166.79" style="fill:#D5C295;" width="12.85" height="12.85"/>
			<rect x="109.705" y="166.79" style="fill:#D5C295;" width="12.85" height="12.85"/>
			<rect x="109.705" y="101.56" style="fill:#D5C295;" width="12.85" height="12.84"/>
			<rect x="174.935" y="101.56" style="fill:#D5C295;" width="12.85" height="12.84"/>
			<rect x="142.325" y="232.02" style="fill:#5B48A2;" width="12.85" height="45.46"/>
			<path d="M240.175,26.44v260.93c0,5.45-4.43,9.88-9.89,9.88H67.205c-5.45,0-9.88-4.43-9.88-9.88V26.44c0-5.46,4.43-9.88,9.88-9.88
				h22.74v-6.43c0-5.45,4.42-9.88,9.88-9.88h97.85c5.45,0,9.88,4.43,9.88,9.88v6.43h22.73
				C235.745,16.56,240.175,20.98,240.175,26.44z M220.405,277.48V36.32h-12.85v22.74c0,5.46-4.43,9.88-9.88,9.88h-97.85
				c-5.46,0-9.88-4.42-9.88-9.88V36.32h-12.85v241.16h45.46v-55.34c0-5.46,4.43-9.89,9.89-9.89h32.61c5.46,0,9.88,4.43,9.88,9.89
				v55.34H220.405z M187.785,49.17V20.02h-78.08v29.15H187.785z M155.175,277.48v-45.46h-12.85v45.46H155.175z"/>
			<path style="fill:#99ABD5;" d="M220.405,36.32v241.16h-45.47v-55.34c0-5.46-4.42-9.89-9.88-9.89h-32.61
				c-5.46,0-9.89,4.43-9.89,9.89v55.34h-45.46V36.32h12.85v22.74c0,5.46,4.42,9.88,9.88,9.88h97.85c5.45,0,9.88-4.42,9.88-9.88
				V36.32H220.405z M207.555,189.52V156.9c0-5.45-4.43-9.88-9.88-9.88h-32.62c-5.46,0-9.88,4.43-9.88,9.88v32.62
				c0,5.46,4.42,9.88,9.88,9.88h32.62C203.125,199.4,207.555,194.98,207.555,189.52z M207.555,124.29V91.67
				c0-5.46-4.43-9.88-9.88-9.88h-32.62c-5.46,0-9.88,4.42-9.88,9.88v32.62c0,5.46,4.42,9.88,9.88,9.88h32.62
				C203.125,134.17,207.555,129.75,207.555,124.29z M142.325,189.52V156.9c0-5.45-4.43-9.88-9.88-9.88h-32.62
				c-5.46,0-9.88,4.43-9.88,9.88v32.62c0,5.46,4.42,9.88,9.88,9.88h32.62C137.895,199.4,142.325,194.98,142.325,189.52z
				 M142.325,124.29V91.67c0-5.46-4.43-9.88-9.88-9.88h-32.62c-5.46,0-9.88,4.42-9.88,9.88v32.62c0,5.46,4.42,9.88,9.88,9.88h32.62
				C137.895,134.17,142.325,129.75,142.325,124.29z"/>
			<path d="M207.555,156.9v32.62c0,5.46-4.43,9.88-9.88,9.88h-32.62c-5.46,0-9.88-4.42-9.88-9.88V156.9c0-5.45,4.42-9.88,9.88-9.88
				h32.62C203.125,147.02,207.555,151.45,207.555,156.9z M187.785,179.64v-12.85h-12.85v12.85H187.785z"/>
			<path d="M207.555,91.67v32.62c0,5.46-4.43,9.88-9.88,9.88h-32.62c-5.46,0-9.88-4.42-9.88-9.88V91.67c0-5.46,4.42-9.88,9.88-9.88
				h32.62C203.125,81.79,207.555,86.21,207.555,91.67z M187.785,114.4v-12.84h-12.85v12.84H187.785z"/>
			<path style="fill:#5B48A2;" d="M187.785,20.02v29.15h-78.08V20.02H187.785z M176.575,36.86l4.79-4.66l-6.62-0.96l-2.96-6l-2.95,6
				l-6.62,0.96l4.79,4.66l-1.13,6.59l5.91-3.11l5.92,3.11L176.575,36.86z M153.045,36.86l4.78-4.66l-6.61-0.96l-2.96-6l-2.96,6
				l-6.61,0.96l4.78,4.66l-1.13,6.59l5.92-3.11l5.92,3.11L153.045,36.86z M130.495,36.86l4.78-4.66l-6.61-0.96l-2.96-6l-2.96,6
				l-6.61,0.96l4.78,4.66l-1.13,6.59l5.92-3.11l5.92,3.11L130.495,36.86z"/>
			<polygon points="181.365,32.2 176.575,36.86 177.705,43.45 171.785,40.34 165.875,43.45 167.005,36.86 162.215,32.2 
				168.835,31.24 171.785,25.24 174.745,31.24 			"/>
			<polygon points="157.825,32.2 153.045,36.86 154.175,43.45 148.255,40.34 142.335,43.45 143.465,36.86 138.685,32.2 
				145.295,31.24 148.255,25.24 151.215,31.24 			"/>
			<path d="M142.325,156.9v32.62c0,5.46-4.43,9.88-9.88,9.88h-32.62c-5.46,0-9.88-4.42-9.88-9.88V156.9c0-5.45,4.42-9.88,9.88-9.88
				h32.62C137.895,147.02,142.325,151.45,142.325,156.9z M122.555,179.64v-12.85h-12.85v12.85H122.555z"/>
			<path d="M142.325,91.67v32.62c0,5.46-4.43,9.88-9.88,9.88h-32.62c-5.46,0-9.88-4.42-9.88-9.88V91.67c0-5.46,4.42-9.88,9.88-9.88
				h32.62C137.895,81.79,142.325,86.21,142.325,91.67z M122.555,114.4v-12.84h-12.85v12.84H122.555z"/>
			<polygon points="135.275,32.2 130.495,36.86 131.625,43.45 125.705,40.34 119.785,43.45 120.915,36.86 116.135,32.2 
				122.745,31.24 125.705,25.24 128.665,31.24 			"/>
		</g>
		<g>
		</g>
	</g>
</g>
<g>
</g>
<g>
</g>
<g>
</g>
<g>
</g>
<g>
</g>
<g>
</g>
<g>
</g>
<g>
</g>
<g>
</g>
<g>
</g>
<g>
</g>
<g>
</g>
<g>
</g>
<g>
</g>
<g>
</g>
</svg>
