<?xml version="1.0" encoding="iso-8859-1"?>
<!-- Generator: Adobe Illustrator 18.0.0, SVG Export Plug-In . SVG Version: 6.00 Build 0)  -->
<!DOCTYPE svg PUBLIC "-//W3C//DTD SVG 1.1//EN" "http://www.w3.org/Graphics/SVG/1.1/DTD/svg11.dtd">
<svg version="1.1" id="Capa_1" xmlns="http://www.w3.org/2000/svg" xmlns:xlink="http://www.w3.org/1999/xlink" x="0px" y="0px"
	 viewBox="0 0 297.498 297.498" style="enable-background:new 0 0 297.498 297.498;" xml:space="preserve">
<g id="XMLID_27_">
	<g>
		<path style="fill:#FFCD02;" d="M277.608,126.199c0,23.45-10.62,44.45-27.28,58.5l-24.1-37.87c-4.91-7.71-13.29-12.13-22.43-11.82
			c-9.13,0.31-17.2,5.28-21.58,13.31l-13.28,24.35l-41.86-65.77c8.58-32.87,38.5-57.21,74.02-57.21
			C243.288,49.689,277.608,84.019,277.608,126.199z"/>
		<path style="fill:#8E725E;" d="M148.078,176.489l10.11,15.88l-30.24,55.44H26.618l34.07-62.46l17.46,15.57
			c1.87,1.67,4.2,2.49,6.53,2.49c2.52,0,5.04-0.96,6.95-2.88l25.47-25.46l9.26,9.26c3.84,3.83,10.05,3.83,13.89,0L148.078,176.489z"
			/>
		<path style="fill:#8E725E;" d="M249.868,220.569l17.33,27.24h-116.87l13.95-25.57l10.7,10.71c1.89,1.88,4.4,2.87,6.95,2.87
			c1.49,0,2.99-0.34,4.39-1.03l26.08-13.04l11.2,11.2c3.84,3.83,10.05,3.83,13.89,0L249.868,220.569z"/>
		<path d="M293.378,252.359c1.93,3.02,2.05,6.85,0.33,10c-1.73,3.14-5.03,5.09-8.61,5.09H10.078c-3.47,0-6.68-1.83-8.45-4.81
			s-1.84-6.67-0.18-9.71l80.13-146.9c4.37-8.02,12.44-13,21.58-13.31c2.59-0.09,5.12,0.21,7.53,0.86
			c13.39-37.01,48.84-63.53,90.41-63.53c53.02,0,96.15,43.13,96.15,96.15c0,30.41-14.19,57.56-36.3,75.19L293.378,252.359z
			 M250.328,184.699c16.66-14.05,27.28-35.05,27.28-58.5c0-42.18-34.32-76.51-76.51-76.51c-35.52,0-65.44,24.34-74.02,57.21
			l41.86,65.77l13.28-24.35c4.38-8.03,12.45-13,21.58-13.31c9.14-0.31,17.52,4.11,22.43,11.82L250.328,184.699z M267.198,247.809
			l-17.33-27.24l-12.38,12.38c-3.84,3.83-10.05,3.83-13.89,0l-11.2-11.2l-26.08,13.04c-1.4,0.69-2.9,1.03-4.39,1.03
			c-2.55,0-5.06-0.99-6.95-2.87l-10.7-10.71l-13.95,25.57H267.198z M239.058,203.589l-29.4-46.21c-1.64-2.57-4.15-2.77-5.19-2.74
			c-1.02,0.04-3.54,0.41-5,3.08l-25.39,46.55l9.78,9.78l26.09-13.04c3.78-1.89,8.34-1.15,11.33,1.84l9.26,9.26L239.058,203.589z
			 M158.188,192.369l-10.11-15.88l-7.83,7.84c-3.84,3.83-10.05,3.83-13.89,0l-9.26-9.26l-25.47,25.46
			c-1.91,1.92-4.43,2.88-6.95,2.88c-2.33,0-4.66-0.82-6.53-2.49l-17.46-15.57l-34.07,62.46h101.33L158.188,192.369z
			 M137.278,159.509l-28.27-44.41c-1.63-2.58-4.18-2.78-5.19-2.74c-1.02,0.03-3.54,0.4-5,3.08l-28.48,52.21l13.96,12.44l25.85-25.86
			c3.84-3.84,10.06-3.84,13.89,0l9.27,9.26L137.278,159.509z"/>
	</g>
	<g>
	</g>
</g>
<g>
</g>
<g>
</g>
<g>
</g>
<g>
</g>
<g>
</g>
<g>
</g>
<g>
</g>
<g>
</g>
<g>
</g>
<g>
</g>
<g>
</g>
<g>
</g>
<g>
</g>
<g>
</g>
<g>
</g>
</svg>
